<?xml version="1.0" encoding="UTF-8"?> <svg xmlns="http://www.w3.org/2000/svg" viewBox="0 0 221.49 59.53"><defs><style>.cls-1{fill:#801d87;}</style></defs><title>soyuz</title><g id="Camada_2" data-name="Camada 2"><g id="Camada_1-2" data-name="Camada 1"><g id="Camada_1-2-2" data-name="Camada 1-2"><path class="cls-1" d="M33.59,43a3.55,3.55,0,0,1-1.09,2.68,4,4,0,0,1-5.37,0A3.53,3.53,0,0,1,26,43a3.64,3.64,0,0,1,1.12-2.73,3.94,3.94,0,0,1,5.37,0A3.68,3.68,0,0,1,33.59,43ZM32.88,22.1q0,3.93-.3,7.19t-.71,6.59H27.81q-.48-3.35-.76-6.62t-.3-7.16V13.27h6.11Z"></path><path class="cls-1" d="M73.91,22.92a9.41,9.41,0,0,0-1.59-1L46.77,5.36C46.21,5,45.62,4.59,45,4.23l-.09-.05h0c-.71-.43-1.45-.83-2.2-1.2a29.76,29.76,0,1,0,4.13,51.15L72.31,37.67a8.23,8.23,0,0,0,1.24-.76l.36-.27h0A8.84,8.84,0,0,0,75.2,24.22a9.25,9.25,0,0,0-1.29-1.29ZM30,53.8A23.81,23.81,0,1,1,53.82,30h0A23.8,23.8,0,0,1,30,53.8Z"></path><path class="cls-1" d="M95.47,39.24a8.53,8.53,0,0,0,3.7-.6,2.16,2.16,0,0,0,1.16-2.09,2.71,2.71,0,0,0-1.24-2.27,18,18,0,0,0-4.09-2A31,31,0,0,1,91.8,31a11,11,0,0,1-2.51-1.66A6.74,6.74,0,0,1,87.63,27a8,8,0,0,1-.6-3.3,7.19,7.19,0,0,1,2.8-6,12,12,0,0,1,7.6-2.19,25.53,25.53,0,0,1,8,1.32L104.25,22a15.93,15.93,0,0,0-2.69-.87,16.2,16.2,0,0,0-3.8-.4,6.59,6.59,0,0,0-3.18.65,2.15,2.15,0,0,0-1.2,2,2.83,2.83,0,0,0,.24,1.22,2.68,2.68,0,0,0,.82,1,8.36,8.36,0,0,0,1.53.89c.75.35,1.52.66,2.31.94a34.51,34.51,0,0,1,3.86,1.66A10.4,10.4,0,0,1,104.75,31a6.32,6.32,0,0,1,1.49,2.35,9.2,9.2,0,0,1,.47,3.17,6.8,6.8,0,0,1-2.93,6q-2.93,2-8.37,2a23.17,23.17,0,0,1-5.86-.6,30.51,30.51,0,0,1-3.12-1l1.13-5.34A29.33,29.33,0,0,0,91,38.72,18.05,18.05,0,0,0,95.47,39.24Z"></path><path class="cls-1" d="M137.68,30a17.56,17.56,0,0,1-1,6,13.18,13.18,0,0,1-2.68,4.59,12.11,12.11,0,0,1-4.2,3,13.64,13.64,0,0,1-5.42,1.06,13.29,13.29,0,0,1-5.39-1,12.21,12.21,0,0,1-4.18-3,13.57,13.57,0,0,1-2.72-4.6,17.5,17.5,0,0,1-1-6,17.44,17.44,0,0,1,1-5.95,13.23,13.23,0,0,1,2.75-4.56,12,12,0,0,1,4.2-2.94,14.47,14.47,0,0,1,10.7,0,11.85,11.85,0,0,1,4.2,2.93,13.7,13.7,0,0,1,2.72,4.57A17.12,17.12,0,0,1,137.68,30Zm-6.56,0a10.78,10.78,0,0,0-1.77-6.52,6.28,6.28,0,0,0-9.88,0A10.78,10.78,0,0,0,117.7,30a11,11,0,0,0,1.77,6.6A5.8,5.8,0,0,0,124.41,39a5.74,5.74,0,0,0,4.94-2.44,11.07,11.07,0,0,0,1.78-6.6Z"></path><path class="cls-1" d="M166.2,16.21a200.91,200.91,0,0,1-9.91,28.52,27.89,27.89,0,0,1-2.17,4.07,12,12,0,0,1-2.48,2.8,9,9,0,0,1-3.07,1.61,14.65,14.65,0,0,1-6.84.18,9.85,9.85,0,0,1-2.2-.68l1.16-5.13a10.37,10.37,0,0,0,3.77.74,5.88,5.88,0,0,0,3.9-1.19,9.84,9.84,0,0,0,2.47-3.67q-3-5.82-5.81-12.68a138.22,138.22,0,0,1-5-14.58h6.81q.54,2.22,1.3,4.81c.51,1.72,1.07,3.48,1.67,5.26s1.24,3.55,1.91,5.31,1.35,3.4,2,4.91q1.68-4.7,3.16-10t2.68-10.27Z"></path><path class="cls-1" d="M193.72,43c-1.23.31-2.83.64-4.8,1a38.25,38.25,0,0,1-6.5.52,14.36,14.36,0,0,1-5.57-.95,8.93,8.93,0,0,1-3.58-2.64,10.35,10.35,0,0,1-1.93-4,21.3,21.3,0,0,1-.58-5.15V16.21h6.39V30.68q0,4.44,1.29,6.34t4.52,1.9c.78,0,1.59,0,2.46-.11a12.77,12.77,0,0,0,1.93-.26V16.21h6.39Z"></path><path class="cls-1" d="M221.19,20.7c-.7.74-1.63,1.78-2.77,3.11s-2.37,2.83-3.68,4.48-2.61,3.34-3.93,5.12-2.52,3.48-3.58,5.1h14.26v5.33h-22v-4a50.78,50.78,0,0,1,2.91-4.59c1.16-1.66,2.35-3.32,3.58-5s2.44-3.26,3.67-4.77,2.31-2.84,3.26-4H200.22V16.21h21Z"></path></g></g></g></svg> 