<?xml version="1.0" encoding="utf-8"?>
<!-- Generator: Adobe Illustrator 19.0.0, SVG Export Plug-In . SVG Version: 6.00 Build 0)  -->
<svg version="1.1" id="Camada_1" xmlns="http://www.w3.org/2000/svg" xmlns:xlink="http://www.w3.org/1999/xlink" x="0px" y="0px"
	 viewBox="0 0 510.2 141.7" style="enable-background:new 0 0 510.2 141.7;" xml:space="preserve">
<style type="text/css">
	.st0{fill:#00305B;}
	.st1{fill-rule:evenodd;clip-rule:evenodd;fill:#702283;}
	.st2{fill-rule:evenodd;clip-rule:evenodd;fill:url(#XMLID_43_);}
	.st3{fill-rule:evenodd;clip-rule:evenodd;fill:#E30613;}
	.st4{fill-rule:evenodd;clip-rule:evenodd;fill:#007E92;}
	.st5{fill-rule:evenodd;clip-rule:evenodd;fill:url(#XMLID_44_);}
	.st6{fill-rule:evenodd;clip-rule:evenodd;fill:#C8D400;}
	.st7{fill-rule:evenodd;clip-rule:evenodd;fill:url(#XMLID_45_);}
	.st8{fill-rule:evenodd;clip-rule:evenodd;fill:url(#XMLID_46_);}
</style>
<g id="XMLID_2_">
	<g id="XMLID_25_">
		<path id="XMLID_41_" class="st0" d="M217.5,34.1l17.6,42.2h0.2V34.1H250V108h-13.6l-17.6-42.2h-0.2V108h-14.6V34.1H217.5z"/>
		<path id="XMLID_39_" class="st0" d="M257.3,108V34.1h15.6V108H257.3z"/>
		<path id="XMLID_37_" class="st0" d="M302.8,77.2h0.2l10.3-43h16L309.6,108h-14.5l-18.5-73.9h16L302.8,77.2z"/>
		<path id="XMLID_35_" class="st0" d="M332.9,34.1h31.6v13.8h-16v15.6h13.7v13.8h-13.7v16.8h16.7V108h-32.3V34.1z"/>
		<path id="XMLID_32_" class="st0" d="M371.8,108V34.1h21c14,0,21.2,8.2,21.2,21.7c0,11.3-4.4,16.7-11.3,18.8l12.8,33.3H399
			l-11.3-32.4h-0.2V108H371.8z M387.4,67.5c6.6,0,10.6-2.7,10.6-9.8c0-7.1-4-9.8-10.6-9.8V67.5z"/>
		<path id="XMLID_30_" class="st0" d="M419.4,90c2.6,2.6,6.4,4.4,10.1,4.4c5.3,0,9.3-3.4,9.3-7.2c0-11-21.1-15-21.1-32.8
			c0-12.2,8.1-21.2,20.5-21.2c3.8,0,8.6,1,12.7,3v15.1c-3-1.9-7.1-3.5-10-3.5c-3.7,0-6.8,1.4-6.8,6.3c0,9,21.5,12.6,21.5,33.1
			c0,14.3-9.6,21.8-23.4,21.8c-4.8,0-8.8-0.9-12.8-3.5V90z"/>
		<path id="XMLID_27_" class="st0" d="M484,109c-14.6,0-24.7-12.4-24.7-37.9c0-25.5,10.1-37.9,24.7-37.9c14.6,0,24.7,12.4,24.7,37.9
			C508.7,96.6,498.6,109,484,109z M484,47.7c-4.5,0-8.3,4.8-8.3,23.3c0,18.5,3.8,23.3,8.3,23.3c4.5,0,8.3-4.8,8.3-23.3
			C492.3,52.5,488.5,47.7,484,47.7z"/>
		<path id="XMLID_26_" class="st0" d="M180.9,34.1v53.1c0,5.2-2.6,7.2-5.6,7.2c-3,0-5.6-2-5.6-7.2V34.1c-15.5,0-15.6,12.6-15.6,12.6
			v41.6c0,11.6,6.2,20.6,21.2,20.6c15,0,21.2-9,21.2-20.6V34.1H180.9z"/>
	</g>
	<path id="XMLID_24_" class="st1" d="M86.8,15.4c-4.5-4.5-9.6-7.9-15-10.3c-5.4,2.4-10.5,5.9-15,10.3c-4.7,4.7-8.3,10.2-10.7,16
		c0,0,0,0,0.1,0c0.5-0.3,1-0.6,1.5-0.9c0.1,0,0.2-0.1,0.2-0.1c0.5-0.3,1-0.6,1.5-0.9c0.1,0,0.2-0.1,0.3-0.1c0.5-0.3,1-0.5,1.5-0.8
		c0.1,0,0.2-0.1,0.3-0.1c0.5-0.2,1-0.5,1.5-0.7c0.1,0,0.2-0.1,0.3-0.1c0.5-0.2,1-0.4,1.5-0.6c0.1,0,0.2-0.1,0.3-0.1
		c0.5-0.2,1-0.4,1.5-0.5c0.1,0,0.3-0.1,0.4-0.1c0.5-0.2,1-0.3,1.5-0.5c0.2,0,0.3-0.1,0.5-0.1c0.5-0.1,0.9-0.3,1.4-0.4
		c0.2,0,0.3-0.1,0.5-0.1c0.5-0.1,0.9-0.2,1.4-0.3c0.2,0,0.4-0.1,0.6-0.1c0.4-0.1,0.9-0.2,1.3-0.2c0.2,0,0.4-0.1,0.7-0.1
		c0.4-0.1,0.8-0.1,1.2-0.2c0.3,0,0.5-0.1,0.7-0.1c0.4,0,0.8-0.1,1.2-0.1c0.3,0,0.6,0,0.8-0.1c0.4,0,0.7,0,1.1-0.1c0.3,0,0.6,0,0.9,0
		c0.3,0,0.7,0,1,0c0.3,0,0.7,0,1,0c0.3,0,0.6,0,0.9,0c0.4,0,0.7,0,1.1,0.1c0.3,0,0.5,0,0.8,0.1c0.4,0,0.8,0.1,1.2,0.1
		c0.2,0,0.5,0.1,0.7,0.1c0.4,0.1,0.8,0.1,1.2,0.2c0.2,0,0.4,0.1,0.7,0.1c0.4,0.1,0.9,0.1,1.3,0.2c0.2,0,0.4,0.1,0.6,0.1
		c0.5,0.1,0.9,0.2,1.4,0.3c0.2,0,0.3,0.1,0.5,0.1c0.5,0.1,1,0.2,1.4,0.4c0.2,0,0.3,0.1,0.4,0.1c0.5,0.1,1,0.3,1.5,0.5
		c0.1,0,0.3,0.1,0.4,0.1c0.5,0.2,1,0.3,1.5,0.5c0.1,0,0.2,0.1,0.3,0.1c0.5,0.2,1,0.4,1.5,0.6c0.1,0,0.2,0.1,0.3,0.1
		c0.5,0.2,1,0.5,1.5,0.7c0.1,0,0.2,0.1,0.3,0.1c0.5,0.3,1,0.5,1.6,0.8c0.1,0,0.2,0.1,0.2,0.1c0.5,0.3,1,0.6,1.5,0.9
		c0.1,0,0.1,0.1,0.2,0.1c0.5,0.3,1,0.6,1.5,0.9c0,0,0,0,0.1,0C95.1,25.6,91.5,20.2,86.8,15.4z"/>
	<linearGradient id="XMLID_43_" gradientUnits="userSpaceOnUse" x1="126.6523" y1="16.1546" x2="105.4448" y2="37.3621">
		<stop  offset="0" style="stop-color:#E6007E"/>
		<stop  offset="1" style="stop-color:#B80E80"/>
	</linearGradient>
	<path id="XMLID_23_" class="st2" d="M97.5,31.4C97.5,31.4,97.5,31.4,97.5,31.4c2.7,1.7,5.3,3.8,7.7,6.2c2.4,2.4,4.4,4.9,6.2,7.7
		c0,0,0,0,0,0c5.8,2.4,11.3,6,16,10.7c4.5,4.5,7.9,9.6,10.3,15c8.2-18.3,4.7-40.6-10.3-55.6C112.3,0.4,90.1-3,71.8,5.1
		c5.4,2.4,10.5,5.9,15,10.3C91.5,20.2,95.1,25.6,97.5,31.4z"/>
	<path id="XMLID_22_" class="st3" d="M127.4,86.1c4.5-4.5,7.9-9.6,10.3-15c-2.4-5.4-5.9-10.5-10.3-15c-4.7-4.7-10.2-8.3-16-10.7
		c0,0,0,0,0,0.1c0.3,0.5,0.6,1,0.9,1.5c0,0.1,0.1,0.2,0.1,0.2c0.3,0.5,0.6,1,0.9,1.5c0,0.1,0.1,0.2,0.1,0.3c0.3,0.5,0.5,1,0.8,1.5
		c0,0.1,0.1,0.2,0.1,0.3c0.2,0.5,0.5,1,0.7,1.5c0,0.1,0.1,0.2,0.1,0.3c0.2,0.5,0.4,1,0.6,1.5c0,0.1,0.1,0.2,0.1,0.3
		c0.2,0.5,0.4,1,0.5,1.5c0,0.1,0.1,0.3,0.1,0.4c0.2,0.5,0.3,1,0.4,1.5c0,0.1,0.1,0.3,0.1,0.5c0.1,0.5,0.3,0.9,0.4,1.4
		c0,0.2,0.1,0.3,0.1,0.5c0.1,0.5,0.2,0.9,0.3,1.4c0,0.2,0.1,0.4,0.1,0.6c0.1,0.4,0.2,0.9,0.2,1.3c0,0.2,0.1,0.4,0.1,0.7
		c0.1,0.4,0.1,0.8,0.2,1.2c0,0.2,0.1,0.5,0.1,0.7c0,0.4,0.1,0.8,0.1,1.2c0,0.3,0.1,0.6,0.1,0.8c0,0.4,0,0.7,0.1,1.1
		c0,0.3,0,0.6,0,0.9c0,0.3,0,0.7,0,1c0,0.3,0,0.7,0,1c0,0.3,0,0.6,0,0.9c0,0.4,0,0.7-0.1,1.1c0,0.3,0,0.6-0.1,0.8
		c0,0.4-0.1,0.8-0.1,1.2c0,0.2-0.1,0.5-0.1,0.7c-0.1,0.4-0.1,0.8-0.2,1.2c0,0.2-0.1,0.4-0.1,0.7c-0.1,0.4-0.1,0.9-0.2,1.3
		c0,0.2-0.1,0.4-0.1,0.6c-0.1,0.5-0.2,0.9-0.3,1.4c0,0.2-0.1,0.3-0.1,0.5c-0.1,0.5-0.2,1-0.4,1.4c0,0.1-0.1,0.3-0.1,0.4
		c-0.1,0.5-0.3,1-0.5,1.5c0,0.1-0.1,0.3-0.1,0.4c-0.2,0.5-0.3,1-0.5,1.5c0,0.1-0.1,0.2-0.1,0.3c-0.2,0.5-0.4,1-0.6,1.5
		c0,0.1-0.1,0.2-0.1,0.3c-0.2,0.5-0.5,1-0.7,1.5c0,0.1-0.1,0.2-0.1,0.3c-0.3,0.5-0.5,1-0.8,1.5c0,0.1-0.1,0.2-0.1,0.2
		c-0.3,0.5-0.6,1-0.9,1.5c0,0.1-0.1,0.1-0.1,0.2c-0.3,0.5-0.6,1-0.9,1.5c0,0,0,0,0,0.1C117.2,94.4,122.6,90.8,127.4,86.1z"/>
	<path id="XMLID_21_" class="st4" d="M16.1,86.1c-4.5-4.5-7.9-9.6-10.3-15c2.4-5.4,5.8-10.5,10.3-15c4.7-4.7,10.2-8.3,16-10.7
		c0,0,0,0,0,0.1c-0.3,0.5-0.6,1-0.9,1.5c0,0.1-0.1,0.2-0.1,0.2c-0.3,0.5-0.6,1-0.9,1.5c0,0.1-0.1,0.2-0.1,0.3
		c-0.3,0.5-0.5,1-0.8,1.5c0,0.1-0.1,0.2-0.1,0.3c-0.2,0.5-0.5,1-0.7,1.5c0,0.1-0.1,0.2-0.1,0.3c-0.2,0.5-0.4,1-0.6,1.5
		c0,0.1-0.1,0.2-0.1,0.3c-0.2,0.5-0.4,1-0.5,1.5c0,0.1-0.1,0.3-0.1,0.4c-0.2,0.5-0.3,1-0.4,1.5c0,0.1-0.1,0.3-0.1,0.5
		c-0.1,0.5-0.3,0.9-0.4,1.4c0,0.2-0.1,0.3-0.1,0.5c-0.1,0.5-0.2,0.9-0.3,1.4c0,0.2-0.1,0.4-0.1,0.6c-0.1,0.4-0.2,0.9-0.2,1.3
		c0,0.2-0.1,0.4-0.1,0.7c-0.1,0.4-0.1,0.8-0.2,1.2c0,0.2-0.1,0.5-0.1,0.7c0,0.4-0.1,0.8-0.1,1.2c0,0.3,0,0.6-0.1,0.8
		c0,0.4,0,0.7-0.1,1.1c0,0.3,0,0.6,0,0.9c0,0.3,0,0.7,0,1c0,0.3,0,0.7,0,1c0,0.3,0,0.6,0,0.9c0,0.4,0,0.7,0.1,1.1
		c0,0.3,0,0.6,0.1,0.8c0,0.4,0.1,0.8,0.1,1.2c0,0.2,0.1,0.5,0.1,0.7c0.1,0.4,0.1,0.8,0.2,1.2c0,0.2,0.1,0.4,0.1,0.7
		c0.1,0.4,0.1,0.9,0.2,1.3c0,0.2,0.1,0.4,0.1,0.6c0.1,0.5,0.2,0.9,0.3,1.4c0,0.2,0.1,0.3,0.1,0.5c0.1,0.5,0.2,1,0.4,1.4
		c0,0.1,0.1,0.3,0.1,0.4c0.1,0.5,0.3,1,0.5,1.5c0,0.1,0.1,0.3,0.1,0.4c0.2,0.5,0.3,1,0.5,1.5c0,0.1,0.1,0.2,0.1,0.3
		c0.2,0.5,0.4,1,0.6,1.5c0,0.1,0.1,0.2,0.1,0.3c0.2,0.5,0.5,1,0.7,1.5c0,0.1,0.1,0.2,0.1,0.3c0.3,0.5,0.5,1,0.8,1.5
		c0,0.1,0.1,0.2,0.1,0.2c0.3,0.5,0.6,1,0.9,1.5c0,0.1,0.1,0.1,0.1,0.2c0.3,0.5,0.6,1,0.9,1.5c0,0,0,0,0,0.1
		C26.3,94.4,20.8,90.8,16.1,86.1z"/>
	<linearGradient id="XMLID_44_" gradientUnits="userSpaceOnUse" x1="126.8116" y1="126.1099" x2="104.8148" y2="104.1131">
		<stop  offset="0" style="stop-color:#FBBA00"/>
		<stop  offset="1" style="stop-color:#EC6608"/>
	</linearGradient>
	<path id="XMLID_20_" class="st5" d="M111.4,96.8C111.4,96.8,111.4,96.8,111.4,96.8c-1.7,2.7-3.8,5.3-6.2,7.7s-4.9,4.4-7.7,6.2
		c0,0,0,0,0,0c-2.4,5.8-6,11.3-10.7,16c-4.5,4.5-9.6,7.9-15,10.3c18.3,8.2,40.6,4.7,55.6-10.3c15-15,18.5-37.3,10.3-55.6
		c-2.4,5.4-5.9,10.5-10.3,15C122.6,90.8,117.2,94.4,111.4,96.8z"/>
	<path id="XMLID_19_" class="st6" d="M56.7,126.7c4.5,4.5,9.6,7.9,15,10.3c5.4-2.4,10.5-5.9,15-10.3c4.7-4.7,8.3-10.2,10.7-16
		c0,0,0,0-0.1,0c-0.5,0.3-1,0.6-1.5,0.9c-0.1,0-0.2,0.1-0.2,0.1c-0.5,0.3-1,0.6-1.5,0.9c-0.1,0-0.2,0.1-0.3,0.1
		c-0.5,0.3-1,0.5-1.5,0.8c-0.1,0-0.2,0.1-0.3,0.1c-0.5,0.2-1,0.5-1.5,0.7c-0.1,0-0.2,0.1-0.3,0.1c-0.5,0.2-1,0.4-1.5,0.6
		c-0.1,0-0.2,0.1-0.3,0.1c-0.5,0.2-1,0.4-1.5,0.5c-0.1,0-0.3,0.1-0.4,0.1c-0.5,0.2-1,0.3-1.5,0.5c-0.2,0-0.3,0.1-0.5,0.1
		c-0.5,0.1-0.9,0.3-1.4,0.4c-0.2,0-0.3,0.1-0.5,0.1c-0.5,0.1-0.9,0.2-1.4,0.3c-0.2,0-0.4,0.1-0.6,0.1c-0.4,0.1-0.9,0.2-1.3,0.2
		c-0.2,0-0.4,0.1-0.7,0.1c-0.4,0.1-0.8,0.1-1.2,0.2c-0.3,0-0.5,0.1-0.7,0.1c-0.4,0-0.8,0.1-1.2,0.1c-0.3,0-0.6,0-0.8,0.1
		c-0.4,0-0.7,0-1.1,0.1c-0.3,0-0.6,0-0.9,0c-0.3,0-0.7,0-1,0c-0.3,0-0.7,0-1,0c-0.3,0-0.6,0-0.9,0c-0.4,0-0.7,0-1.1-0.1
		c-0.3,0-0.6,0-0.8-0.1c-0.4,0-0.8-0.1-1.2-0.1c-0.2,0-0.5-0.1-0.7-0.1c-0.4,0-0.8-0.1-1.2-0.2c-0.2,0-0.4-0.1-0.7-0.1
		c-0.4-0.1-0.9-0.1-1.3-0.2c-0.2,0-0.4-0.1-0.6-0.1c-0.5-0.1-0.9-0.2-1.4-0.3c-0.2,0-0.3-0.1-0.5-0.1c-0.5-0.1-1-0.2-1.4-0.4
		c-0.1,0-0.3-0.1-0.4-0.1c-0.5-0.1-1-0.3-1.5-0.5c-0.1,0-0.3-0.1-0.4-0.1c-0.5-0.2-1-0.3-1.5-0.5c-0.1,0-0.2-0.1-0.3-0.1
		c-0.5-0.2-1-0.4-1.5-0.6c-0.1,0-0.2-0.1-0.3-0.1c-0.5-0.2-1-0.5-1.5-0.7c-0.1,0-0.2-0.1-0.3-0.1c-0.5-0.3-1-0.5-1.6-0.8
		c-0.1,0-0.2-0.1-0.2-0.1c-0.5-0.3-1-0.6-1.5-0.9c-0.1,0-0.2-0.1-0.2-0.1c-0.5-0.3-1-0.6-1.5-0.9c0,0,0,0-0.1,0
		C48.4,116.5,52,121.9,56.7,126.7z"/>
	<linearGradient id="XMLID_45_" gradientUnits="userSpaceOnUse" x1="16.3416" y1="126.4672" x2="38.219" y2="104.5898">
		<stop  offset="0" style="stop-color:#75B843"/>
		<stop  offset="1" style="stop-color:#009640"/>
	</linearGradient>
	<path id="XMLID_18_" class="st7" d="M46,110.7C46,110.7,46,110.7,46,110.7c-2.7-1.7-5.3-3.8-7.7-6.2c-2.4-2.4-4.4-4.9-6.2-7.7
		c0,0,0,0,0,0c-5.8-2.4-11.3-6-16-10.7c-4.5-4.5-7.9-9.6-10.3-15c-8.2,18.3-4.7,40.6,10.3,55.6c15,15,37.3,18.5,55.6,10.3
		c-5.4-2.4-10.5-5.9-15-10.3C52,121.9,48.4,116.5,46,110.7z"/>
	<linearGradient id="XMLID_46_" gradientUnits="userSpaceOnUse" x1="16.5254" y1="15.8217" x2="39.0588" y2="38.3551">
		<stop  offset="0" style="stop-color:#A1DAF8"/>
		<stop  offset="1" style="stop-color:#009FE3"/>
	</linearGradient>
	<path id="XMLID_17_" class="st8" d="M16.1,56c4.7-4.7,10.2-8.3,16-10.7c0,0,0,0,0,0c1.8-2.7,3.8-5.3,6.2-7.7
		c2.4-2.4,4.9-4.4,7.7-6.2c2.4-5.8,6-11.3,10.7-16c4.5-4.5,9.6-7.9,15-10.3C53.4-3,31.2,0.4,16.1,15.4c-15,15-18.5,37.3-10.3,55.6
		C8.2,65.6,11.7,60.5,16.1,56z"/>
	<g id="XMLID_3_">
		<path id="XMLID_15_" class="st0" d="M207.6,141.6v-22.4h-3.7v-3.7h11.2v3.7h-3.7v22.4H207.6z"/>
		<path id="XMLID_13_" class="st0" d="M258,115.5v26.1h-3.7v-26.1H258z"/>
		<path id="XMLID_11_" class="st0" d="M301.3,115.5l5.6,14.9v-14.9h3.7v26.1h-3.7l-5.6-14.9v14.9h-3.7v-26.1H301.3z"/>
		<path id="XMLID_9_" class="st0" d="M353.9,141.6v-22.4h-3.7v-3.7h11.2v3.7h-3.7v22.4H353.9z"/>
		<path id="XMLID_6_" class="st0" d="M405.9,137.9h-4.2l-0.7,3.7h-3.7l4.6-26.1h3.7l4.5,26.1h-3.5L405.9,137.9z M405.1,134.1
			l-1.4-7.5l-1.4,7.5H405.1z"/>
		<path id="XMLID_4_" class="st0" d="M455.2,122.9v-2.1c0-0.5-0.2-1-0.5-1.3c-0.4-0.4-0.8-0.5-1.3-0.5c-0.5,0-1,0.2-1.3,0.5
			c-0.4,0.4-0.5,0.8-0.5,1.3v2.1c0,0.7,0.2,1.3,0.6,1.9c0.4,0.6,0.8,1.1,1.3,1.6c0.5,0.5,1,0.9,1.5,1.2c0.5,0.3,0.9,0.6,1.1,0.9
			c0.3,0.3,0.6,0.6,0.9,1c0.3,0.4,0.7,0.8,1,1.3c0.3,0.5,0.5,1,0.7,1.5c0.2,0.6,0.3,1.2,0.3,1.8v2.1c0,0.8-0.1,1.5-0.4,2.2
			c-0.3,0.7-0.7,1.3-1.2,1.8c-0.5,0.5-1.1,0.9-1.8,1.2c-0.7,0.3-1.4,0.4-2.2,0.4c-0.8,0-1.5-0.1-2.2-0.4c-0.7-0.3-1.3-0.7-1.8-1.2
			c-0.5-0.5-0.9-1.1-1.2-1.8c-0.3-0.7-0.4-1.4-0.4-2.2v-2.1h3.7v2.1c0,0.5,0.2,0.9,0.5,1.3c0.4,0.4,0.8,0.6,1.3,0.6
			c0.5,0,1-0.2,1.3-0.6c0.4-0.4,0.5-0.8,0.5-1.3v-2.1c0-0.7-0.2-1.3-0.6-1.9c-0.4-0.6-0.9-1.1-1.4-1.6c-0.5-0.5-1-0.9-1.6-1.3
			c-0.5-0.4-0.9-0.7-1.1-0.9c-0.2-0.2-0.5-0.5-0.8-0.9c-0.3-0.3-0.6-0.8-0.9-1.2c-0.3-0.5-0.5-1-0.7-1.6c-0.2-0.6-0.3-1.2-0.3-1.9
			v-2.1c0-0.7,0.1-1.5,0.4-2.1c0.3-0.7,0.7-1.3,1.2-1.8c0.5-0.5,1.1-0.9,1.8-1.2c0.7-0.3,1.4-0.4,2.2-0.4c0.8,0,1.5,0.1,2.2,0.4
			c0.7,0.3,1.3,0.7,1.8,1.2c0.5,0.5,0.9,1.1,1.2,1.8c0.3,0.7,0.4,1.4,0.4,2.2v2.1H455.2z"/>
	</g>
</g>
</svg>
